<?xml version="1.0" encoding="UTF-8" standalone="no"?>
<!DOCTYPE svg PUBLIC "-//W3C//DTD SVG 1.1//EN"
 "http://www.w3.org/Graphics/SVG/1.1/DTD/svg11.dtd">
<!-- Generated by graphviz version 2.47.3 (20210619.1520)
 -->
<!-- Title: dependencies Pages: 1 -->
<svg width="2442pt" height="247pt"
 viewBox="0.00 0.00 2442.00 246.80" xmlns="http://www.w3.org/2000/svg" xmlns:xlink="http://www.w3.org/1999/xlink">
<g id="graph0" class="graph" transform="scale(1 1) rotate(0) translate(4 242.8)">
<title>dependencies</title>
<polygon fill="white" stroke="transparent" points="-4,4 -4,-242.8 2438,-242.8 2438,4 -4,4"/>
<text text-anchor="middle" x="1217" y="-8.2" font-family="sans-serif" font-size="14.00">dependencies</text>
<g id="clust1" class="cluster">
<title>cluster_AppModule</title>
<polygon fill="none" stroke="black" stroke-dasharray="1,5" points="8,-32.8 8,-230.8 2426,-230.8 2426,-32.8 8,-32.8"/>
</g>
<g id="clust2" class="cluster">
<title>cluster_AppModule_declarations</title>
<polygon fill="none" stroke="black" points="318,-40.8 318,-92.8 2418,-92.8 2418,-40.8 318,-40.8"/>
</g>
<g id="clust17" class="cluster">
<title>cluster_AppModule_imports</title>
<polygon fill="none" stroke="black" points="208,-40.8 208,-92.8 310,-92.8 310,-40.8 208,-40.8"/>
</g>
<g id="clust19" class="cluster">
<title>cluster_AppModule_bootstrap</title>
<polygon fill="none" stroke="black" points="1132,-170.8 1132,-222.8 1256,-222.8 1256,-170.8 1132,-170.8"/>
</g>
<g id="clust20" class="cluster">
<title>cluster_AppModule_providers</title>
<polygon fill="none" stroke="black" points="16,-40.8 16,-92.8 200,-92.8 200,-40.8 16,-40.8"/>
</g>
<!-- AdminComponent -->
<g id="node1" class="node">
<title>AdminComponent</title>
<polygon fill="#ffffb3" stroke="black" points="2410.22,-84.8 2289.78,-84.8 2289.78,-48.8 2410.22,-48.8 2410.22,-84.8"/>
<text text-anchor="middle" x="2350" y="-62.6" font-family="Times,serif" font-size="14.00">AdminComponent</text>
</g>
<!-- AppModule -->
<g id="node15" class="node">
<title>AppModule</title>
<polygon fill="#8dd3c7" stroke="black" points="1235.66,-149.8 1232.66,-153.8 1211.66,-153.8 1208.66,-149.8 1152.34,-149.8 1152.34,-113.8 1235.66,-113.8 1235.66,-149.8"/>
<text text-anchor="middle" x="1194" y="-127.6" font-family="Times,serif" font-size="14.00">AppModule</text>
</g>
<!-- AdminComponent&#45;&gt;AppModule -->
<g id="edge1" class="edge">
<title>AdminComponent&#45;&gt;AppModule</title>
<path fill="none" stroke="black" d="M2350,-85.12C2350,-108.46 2350,-145.8 2350,-145.8 2350,-145.8 1245.83,-145.8 1245.83,-145.8"/>
<polygon fill="black" stroke="black" points="1245.83,-142.3 1235.83,-145.8 1245.83,-149.3 1245.83,-142.3"/>
</g>
<!-- AppComponent -->
<g id="node2" class="node">
<title>AppComponent</title>
<polygon fill="#ffffb3" stroke="black" points="2271.94,-84.8 2166.06,-84.8 2166.06,-48.8 2271.94,-48.8 2271.94,-84.8"/>
<text text-anchor="middle" x="2219" y="-62.6" font-family="Times,serif" font-size="14.00">AppComponent</text>
</g>
<!-- AppComponent&#45;&gt;AppModule -->
<g id="edge2" class="edge">
<title>AppComponent&#45;&gt;AppModule</title>
<path fill="none" stroke="black" d="M2219,-85.09C2219,-107.01 2219,-140.8 2219,-140.8 2219,-140.8 1245.77,-140.8 1245.77,-140.8"/>
<polygon fill="black" stroke="black" points="1245.77,-137.3 1235.77,-140.8 1245.77,-144.3 1245.77,-137.3"/>
</g>
<!-- AppointmentsComponent -->
<g id="node3" class="node">
<title>AppointmentsComponent</title>
<polygon fill="#ffffb3" stroke="black" points="2148.16,-84.8 1987.84,-84.8 1987.84,-48.8 2148.16,-48.8 2148.16,-84.8"/>
<text text-anchor="middle" x="2068" y="-62.6" font-family="Times,serif" font-size="14.00">AppointmentsComponent</text>
</g>
<!-- AppointmentsComponent&#45;&gt;AppModule -->
<g id="edge3" class="edge">
<title>AppointmentsComponent&#45;&gt;AppModule</title>
<path fill="none" stroke="black" d="M2068,-84.83C2068,-105.57 2068,-136.8 2068,-136.8 2068,-136.8 1245.86,-136.8 1245.86,-136.8"/>
<polygon fill="black" stroke="black" points="1245.86,-133.3 1235.86,-136.8 1245.86,-140.3 1245.86,-133.3"/>
</g>
<!-- EventsComponent -->
<g id="node4" class="node">
<title>EventsComponent</title>
<polygon fill="#ffffb3" stroke="black" points="1969.94,-84.8 1850.06,-84.8 1850.06,-48.8 1969.94,-48.8 1969.94,-84.8"/>
<text text-anchor="middle" x="1910" y="-62.6" font-family="Times,serif" font-size="14.00">EventsComponent</text>
</g>
<!-- EventsComponent&#45;&gt;AppModule -->
<g id="edge4" class="edge">
<title>EventsComponent&#45;&gt;AppModule</title>
<path fill="none" stroke="black" d="M1910,-84.91C1910,-104.14 1910,-131.8 1910,-131.8 1910,-131.8 1245.85,-131.8 1245.85,-131.8"/>
<polygon fill="black" stroke="black" points="1245.85,-128.3 1235.85,-131.8 1245.85,-135.3 1245.85,-128.3"/>
</g>
<!-- GeocodingComponent -->
<g id="node5" class="node">
<title>GeocodingComponent</title>
<polygon fill="#ffffb3" stroke="black" points="1832.26,-84.8 1689.74,-84.8 1689.74,-48.8 1832.26,-48.8 1832.26,-84.8"/>
<text text-anchor="middle" x="1761" y="-62.6" font-family="Times,serif" font-size="14.00">GeocodingComponent</text>
</g>
<!-- GeocodingComponent&#45;&gt;AppModule -->
<g id="edge5" class="edge">
<title>GeocodingComponent&#45;&gt;AppModule</title>
<path fill="none" stroke="black" d="M1761,-85.1C1761,-103.07 1761,-127.8 1761,-127.8 1761,-127.8 1245.69,-127.8 1245.69,-127.8"/>
<polygon fill="black" stroke="black" points="1245.69,-124.3 1235.69,-127.8 1245.69,-131.3 1245.69,-124.3"/>
</g>
<!-- HomepageComponent -->
<g id="node6" class="node">
<title>HomepageComponent</title>
<polygon fill="#ffffb3" stroke="black" points="1671.97,-84.8 1530.03,-84.8 1530.03,-48.8 1671.97,-48.8 1671.97,-84.8"/>
<text text-anchor="middle" x="1601" y="-62.6" font-family="Times,serif" font-size="14.00">HomepageComponent</text>
</g>
<!-- HomepageComponent&#45;&gt;AppModule -->
<g id="edge6" class="edge">
<title>HomepageComponent&#45;&gt;AppModule</title>
<path fill="none" stroke="black" d="M1601,-84.83C1601,-101.2 1601,-122.8 1601,-122.8 1601,-122.8 1246.02,-122.8 1246.02,-122.8"/>
<polygon fill="black" stroke="black" points="1246.02,-119.3 1236.02,-122.8 1246.02,-126.3 1246.02,-119.3"/>
</g>
<!-- InternalinfoComponent -->
<g id="node7" class="node">
<title>InternalinfoComponent</title>
<polygon fill="#ffffb3" stroke="black" points="1511.92,-84.8 1364.08,-84.8 1364.08,-48.8 1511.92,-48.8 1511.92,-84.8"/>
<text text-anchor="middle" x="1438" y="-62.6" font-family="Times,serif" font-size="14.00">InternalinfoComponent</text>
</g>
<!-- InternalinfoComponent&#45;&gt;AppModule -->
<g id="edge7" class="edge">
<title>InternalinfoComponent&#45;&gt;AppModule</title>
<path fill="none" stroke="black" d="M1438,-84.99C1438,-99.98 1438,-118.8 1438,-118.8 1438,-118.8 1245.67,-118.8 1245.67,-118.8"/>
<polygon fill="black" stroke="black" points="1245.67,-115.3 1235.67,-118.8 1245.67,-122.3 1245.67,-115.3"/>
</g>
<!-- InternationalComponent -->
<g id="node8" class="node">
<title>InternationalComponent</title>
<polygon fill="#ffffb3" stroke="black" points="1346.36,-84.8 1193.64,-84.8 1193.64,-48.8 1346.36,-48.8 1346.36,-84.8"/>
<text text-anchor="middle" x="1270" y="-62.6" font-family="Times,serif" font-size="14.00">InternationalComponent</text>
</g>
<!-- InternationalComponent&#45;&gt;AppModule -->
<g id="edge8" class="edge">
<title>InternationalComponent&#45;&gt;AppModule</title>
<path fill="none" stroke="black" d="M1214.7,-84.91C1214.7,-84.91 1214.7,-103.79 1214.7,-103.79"/>
<polygon fill="black" stroke="black" points="1211.2,-103.79 1214.7,-113.79 1218.2,-103.79 1211.2,-103.79"/>
</g>
<!-- LoginComponent -->
<g id="node9" class="node">
<title>LoginComponent</title>
<polygon fill="#ffffb3" stroke="black" points="1175.28,-84.8 1060.72,-84.8 1060.72,-48.8 1175.28,-48.8 1175.28,-84.8"/>
<text text-anchor="middle" x="1118" y="-62.6" font-family="Times,serif" font-size="14.00">LoginComponent</text>
</g>
<!-- LoginComponent&#45;&gt;AppModule -->
<g id="edge9" class="edge">
<title>LoginComponent&#45;&gt;AppModule</title>
<path fill="none" stroke="black" d="M1163.78,-84.91C1163.78,-84.91 1163.78,-103.79 1163.78,-103.79"/>
<polygon fill="black" stroke="black" points="1160.28,-103.79 1163.78,-113.79 1167.28,-103.79 1160.28,-103.79"/>
</g>
<!-- NavigationComponent -->
<g id="node10" class="node">
<title>NavigationComponent</title>
<polygon fill="#ffffb3" stroke="black" points="1042.54,-84.8 899.46,-84.8 899.46,-48.8 1042.54,-48.8 1042.54,-84.8"/>
<text text-anchor="middle" x="971" y="-62.6" font-family="Times,serif" font-size="14.00">NavigationComponent</text>
</g>
<!-- NavigationComponent&#45;&gt;AppModule -->
<g id="edge10" class="edge">
<title>NavigationComponent&#45;&gt;AppModule</title>
<path fill="none" stroke="black" d="M971,-84.99C971,-99.98 971,-118.8 971,-118.8 971,-118.8 1142.32,-118.8 1142.32,-118.8"/>
<polygon fill="black" stroke="black" points="1142.32,-122.3 1152.32,-118.8 1142.32,-115.3 1142.32,-122.3"/>
</g>
<!-- RegisterComponent -->
<g id="node11" class="node">
<title>RegisterComponent</title>
<polygon fill="#ffffb3" stroke="black" points="880.98,-84.8 753.02,-84.8 753.02,-48.8 880.98,-48.8 880.98,-84.8"/>
<text text-anchor="middle" x="817" y="-62.6" font-family="Times,serif" font-size="14.00">RegisterComponent</text>
</g>
<!-- RegisterComponent&#45;&gt;AppModule -->
<g id="edge11" class="edge">
<title>RegisterComponent&#45;&gt;AppModule</title>
<path fill="none" stroke="black" d="M817,-84.83C817,-101.2 817,-122.8 817,-122.8 817,-122.8 1142.21,-122.8 1142.21,-122.8"/>
<polygon fill="black" stroke="black" points="1142.21,-126.3 1152.21,-122.8 1142.21,-119.3 1142.21,-126.3"/>
</g>
<!-- ResultsListComponent -->
<g id="node12" class="node">
<title>ResultsListComponent</title>
<polygon fill="#ffffb3" stroke="black" points="735.33,-84.8 590.67,-84.8 590.67,-48.8 735.33,-48.8 735.33,-84.8"/>
<text text-anchor="middle" x="663" y="-62.6" font-family="Times,serif" font-size="14.00">ResultsListComponent</text>
</g>
<!-- ResultsListComponent&#45;&gt;AppModule -->
<g id="edge12" class="edge">
<title>ResultsListComponent&#45;&gt;AppModule</title>
<path fill="none" stroke="black" d="M663,-85.1C663,-103.07 663,-127.8 663,-127.8 663,-127.8 1142.33,-127.8 1142.33,-127.8"/>
<polygon fill="black" stroke="black" points="1142.33,-131.3 1152.33,-127.8 1142.33,-124.3 1142.33,-131.3"/>
</g>
<!-- RoomsComponent -->
<g id="node13" class="node">
<title>RoomsComponent</title>
<polygon fill="#ffffb3" stroke="black" points="572.5,-84.8 451.5,-84.8 451.5,-48.8 572.5,-48.8 572.5,-84.8"/>
<text text-anchor="middle" x="512" y="-62.6" font-family="Times,serif" font-size="14.00">RoomsComponent</text>
</g>
<!-- RoomsComponent&#45;&gt;AppModule -->
<g id="edge13" class="edge">
<title>RoomsComponent&#45;&gt;AppModule</title>
<path fill="none" stroke="black" d="M512,-84.91C512,-104.14 512,-131.8 512,-131.8 512,-131.8 1142.11,-131.8 1142.11,-131.8"/>
<polygon fill="black" stroke="black" points="1142.11,-135.3 1152.11,-131.8 1142.11,-128.3 1142.11,-135.3"/>
</g>
<!-- UserComponent -->
<g id="node14" class="node">
<title>UserComponent</title>
<polygon fill="#ffffb3" stroke="black" points="433.76,-84.8 326.24,-84.8 326.24,-48.8 433.76,-48.8 433.76,-84.8"/>
<text text-anchor="middle" x="380" y="-62.6" font-family="Times,serif" font-size="14.00">UserComponent</text>
</g>
<!-- UserComponent&#45;&gt;AppModule -->
<g id="edge14" class="edge">
<title>UserComponent&#45;&gt;AppModule</title>
<path fill="none" stroke="black" d="M380,-84.83C380,-105.57 380,-136.8 380,-136.8 380,-136.8 1142.23,-136.8 1142.23,-136.8"/>
<polygon fill="black" stroke="black" points="1142.23,-140.3 1152.23,-136.8 1142.23,-133.3 1142.23,-140.3"/>
</g>
<!-- AppComponent  -->
<g id="node17" class="node">
<title>AppComponent </title>
<polygon fill="#80b1d3" stroke="black" points="1248.44,-214.8 1139.56,-214.8 1139.56,-178.8 1248.44,-178.8 1248.44,-214.8"/>
<text text-anchor="middle" x="1194" y="-192.6" font-family="Times,serif" font-size="14.00">AppComponent </text>
</g>
<!-- AppModule&#45;&gt;AppComponent  -->
<g id="edge16" class="edge">
<title>AppModule&#45;&gt;AppComponent </title>
<path fill="none" stroke="black" stroke-dasharray="1,5" d="M1194,-149.91C1194,-149.91 1194,-168.79 1194,-168.79"/>
<polygon fill="black" stroke="black" points="1190.5,-168.79 1194,-178.79 1197.5,-168.79 1190.5,-168.79"/>
</g>
<!-- I18nModule -->
<g id="node16" class="node">
<title>I18nModule</title>
<polygon fill="#8dd3c7" stroke="black" points="301.71,-84.8 298.71,-88.8 277.71,-88.8 274.71,-84.8 216.29,-84.8 216.29,-48.8 301.71,-48.8 301.71,-84.8"/>
<text text-anchor="middle" x="259" y="-62.6" font-family="Times,serif" font-size="14.00">I18nModule</text>
</g>
<!-- I18nModule&#45;&gt;AppModule -->
<g id="edge15" class="edge">
<title>I18nModule&#45;&gt;AppModule</title>
<path fill="none" stroke="black" d="M259,-85.09C259,-107.01 259,-140.8 259,-140.8 259,-140.8 1142.31,-140.8 1142.31,-140.8"/>
<polygon fill="black" stroke="black" points="1142.31,-144.3 1152.31,-140.8 1142.31,-137.3 1142.31,-144.3"/>
</g>
<!-- NominatimService -->
<g id="node18" class="node">
<title>NominatimService</title>
<ellipse fill="#fdb462" stroke="black" cx="108" cy="-66.8" rx="83.96" ry="18"/>
<text text-anchor="middle" x="108" y="-62.6" font-family="Times,serif" font-size="14.00">NominatimService</text>
</g>
<!-- NominatimService&#45;&gt;AppModule -->
<g id="edge17" class="edge">
<title>NominatimService&#45;&gt;AppModule</title>
<path fill="none" stroke="black" d="M108,-85.12C108,-108.46 108,-145.8 108,-145.8 108,-145.8 1142.09,-145.8 1142.09,-145.8"/>
<polygon fill="black" stroke="black" points="1142.09,-149.3 1152.09,-145.8 1142.09,-142.3 1142.09,-149.3"/>
</g>
</g>
</svg>
