<?xml version="1.0" encoding="UTF-8" standalone="no"?>
<!DOCTYPE svg PUBLIC "-//W3C//DTD SVG 1.1//EN"
 "http://www.w3.org/Graphics/SVG/1.1/DTD/svg11.dtd">
<!-- Generated by graphviz version 2.47.3 (20210619.1520)
 -->
<!-- Title: dependencies Pages: 1 -->
<svg width="2442pt" height="247pt"
 viewBox="0.00 0.00 2442.00 246.80" xmlns="http://www.w3.org/2000/svg" xmlns:xlink="http://www.w3.org/1999/xlink">
<g id="graph0" class="graph" transform="scale(1 1) rotate(0) translate(4 242.8)">
<title>dependencies</title>
<polygon fill="white" stroke="transparent" points="-4,4 -4,-242.8 2438,-242.8 2438,4 -4,4"/>
<text text-anchor="middle" x="1217" y="-8.2" font-family="sans-serif" font-size="14.00">dependencies</text>
<g id="clust1" class="cluster">
<title>cluster_AppModule</title>
<polygon fill="none" stroke="black" stroke-dasharray="1,5" points="8,-32.8 8,-230.8 2426,-230.8 2426,-32.8 8,-32.8"/>
</g>
<g id="clust17" class="cluster">
<title>cluster_AppModule_imports</title>
<polygon fill="none" stroke="black" points="2316,-40.8 2316,-92.8 2418,-92.8 2418,-40.8 2316,-40.8"/>
</g>
<g id="clust19" class="cluster">
<title>cluster_AppModule_bootstrap</title>
<polygon fill="none" stroke="black" points="1155,-170.8 1155,-222.8 1279,-222.8 1279,-170.8 1155,-170.8"/>
</g>
<g id="clust20" class="cluster">
<title>cluster_AppModule_providers</title>
<polygon fill="none" stroke="black" points="2124,-40.8 2124,-92.8 2308,-92.8 2308,-40.8 2124,-40.8"/>
</g>
<g id="clust2" class="cluster">
<title>cluster_AppModule_declarations</title>
<polygon fill="none" stroke="black" points="16,-40.8 16,-92.8 2116,-92.8 2116,-40.8 16,-40.8"/>
</g>
<!-- AdminComponent -->
<g id="node1" class="node">
<title>AdminComponent</title>
<polygon fill="#ffffb3" stroke="black" points="2108.22,-84.8 1987.78,-84.8 1987.78,-48.8 2108.22,-48.8 2108.22,-84.8"/>
<text text-anchor="middle" x="2048" y="-62.6" font-family="Times,serif" font-size="14.00">AdminComponent</text>
</g>
<!-- AppModule -->
<g id="node15" class="node">
<title>AppModule</title>
<polygon fill="#8dd3c7" stroke="black" points="1258.66,-149.8 1255.66,-153.8 1234.66,-153.8 1231.66,-149.8 1175.34,-149.8 1175.34,-113.8 1258.66,-113.8 1258.66,-149.8"/>
<text text-anchor="middle" x="1217" y="-127.6" font-family="Times,serif" font-size="14.00">AppModule</text>
</g>
<!-- AdminComponent&#45;&gt;AppModule -->
<g id="edge1" class="edge">
<title>AdminComponent&#45;&gt;AppModule</title>
<path fill="none" stroke="black" d="M2048,-84.83C2048,-105.57 2048,-136.8 2048,-136.8 2048,-136.8 1268.78,-136.8 1268.78,-136.8"/>
<polygon fill="black" stroke="black" points="1268.78,-133.3 1258.78,-136.8 1268.78,-140.3 1268.78,-133.3"/>
</g>
<!-- AppComponent -->
<g id="node2" class="node">
<title>AppComponent</title>
<polygon fill="#ffffb3" stroke="black" points="1969.94,-84.8 1864.06,-84.8 1864.06,-48.8 1969.94,-48.8 1969.94,-84.8"/>
<text text-anchor="middle" x="1917" y="-62.6" font-family="Times,serif" font-size="14.00">AppComponent</text>
</g>
<!-- AppComponent&#45;&gt;AppModule -->
<g id="edge2" class="edge">
<title>AppComponent&#45;&gt;AppModule</title>
<path fill="none" stroke="black" d="M1917,-84.91C1917,-104.14 1917,-131.8 1917,-131.8 1917,-131.8 1268.69,-131.8 1268.69,-131.8"/>
<polygon fill="black" stroke="black" points="1268.69,-128.3 1258.69,-131.8 1268.69,-135.3 1268.69,-128.3"/>
</g>
<!-- AppointmentsComponent -->
<g id="node3" class="node">
<title>AppointmentsComponent</title>
<polygon fill="#ffffb3" stroke="black" points="1846.16,-84.8 1685.84,-84.8 1685.84,-48.8 1846.16,-48.8 1846.16,-84.8"/>
<text text-anchor="middle" x="1766" y="-62.6" font-family="Times,serif" font-size="14.00">AppointmentsComponent</text>
</g>
<!-- AppointmentsComponent&#45;&gt;AppModule -->
<g id="edge3" class="edge">
<title>AppointmentsComponent&#45;&gt;AppModule</title>
<path fill="none" stroke="black" d="M1766,-85.1C1766,-103.07 1766,-127.8 1766,-127.8 1766,-127.8 1268.71,-127.8 1268.71,-127.8"/>
<polygon fill="black" stroke="black" points="1268.71,-124.3 1258.71,-127.8 1268.71,-131.3 1268.71,-124.3"/>
</g>
<!-- EventsComponent -->
<g id="node4" class="node">
<title>EventsComponent</title>
<polygon fill="#ffffb3" stroke="black" points="1667.94,-84.8 1548.06,-84.8 1548.06,-48.8 1667.94,-48.8 1667.94,-84.8"/>
<text text-anchor="middle" x="1608" y="-62.6" font-family="Times,serif" font-size="14.00">EventsComponent</text>
</g>
<!-- EventsComponent&#45;&gt;AppModule -->
<g id="edge4" class="edge">
<title>EventsComponent&#45;&gt;AppModule</title>
<path fill="none" stroke="black" d="M1608,-84.83C1608,-101.2 1608,-122.8 1608,-122.8 1608,-122.8 1268.84,-122.8 1268.84,-122.8"/>
<polygon fill="black" stroke="black" points="1268.84,-119.3 1258.84,-122.8 1268.84,-126.3 1268.84,-119.3"/>
</g>
<!-- GeocodingComponent -->
<g id="node5" class="node">
<title>GeocodingComponent</title>
<polygon fill="#ffffb3" stroke="black" points="1530.26,-84.8 1387.74,-84.8 1387.74,-48.8 1530.26,-48.8 1530.26,-84.8"/>
<text text-anchor="middle" x="1459" y="-62.6" font-family="Times,serif" font-size="14.00">GeocodingComponent</text>
</g>
<!-- GeocodingComponent&#45;&gt;AppModule -->
<g id="edge5" class="edge">
<title>GeocodingComponent&#45;&gt;AppModule</title>
<path fill="none" stroke="black" d="M1459,-84.99C1459,-99.98 1459,-118.8 1459,-118.8 1459,-118.8 1268.88,-118.8 1268.88,-118.8"/>
<polygon fill="black" stroke="black" points="1268.88,-115.3 1258.88,-118.8 1268.88,-122.3 1268.88,-115.3"/>
</g>
<!-- HomepageComponent -->
<g id="node6" class="node">
<title>HomepageComponent</title>
<polygon fill="#ffffb3" stroke="black" points="1369.97,-84.8 1228.03,-84.8 1228.03,-48.8 1369.97,-48.8 1369.97,-84.8"/>
<text text-anchor="middle" x="1299" y="-62.6" font-family="Times,serif" font-size="14.00">HomepageComponent</text>
</g>
<!-- HomepageComponent&#45;&gt;AppModule -->
<g id="edge6" class="edge">
<title>HomepageComponent&#45;&gt;AppModule</title>
<path fill="none" stroke="black" d="M1243.42,-84.91C1243.42,-84.91 1243.42,-103.79 1243.42,-103.79"/>
<polygon fill="black" stroke="black" points="1239.92,-103.79 1243.42,-113.79 1246.92,-103.79 1239.92,-103.79"/>
</g>
<!-- InternalinfoComponent -->
<g id="node7" class="node">
<title>InternalinfoComponent</title>
<polygon fill="#ffffb3" stroke="black" points="1209.92,-84.8 1062.08,-84.8 1062.08,-48.8 1209.92,-48.8 1209.92,-84.8"/>
<text text-anchor="middle" x="1136" y="-62.6" font-family="Times,serif" font-size="14.00">InternalinfoComponent</text>
</g>
<!-- InternalinfoComponent&#45;&gt;AppModule -->
<g id="edge7" class="edge">
<title>InternalinfoComponent&#45;&gt;AppModule</title>
<path fill="none" stroke="black" d="M1192.44,-84.91C1192.44,-84.91 1192.44,-103.79 1192.44,-103.79"/>
<polygon fill="black" stroke="black" points="1188.94,-103.79 1192.44,-113.79 1195.94,-103.79 1188.94,-103.79"/>
</g>
<!-- InternationalComponent -->
<g id="node8" class="node">
<title>InternationalComponent</title>
<polygon fill="#ffffb3" stroke="black" points="1044.36,-84.8 891.64,-84.8 891.64,-48.8 1044.36,-48.8 1044.36,-84.8"/>
<text text-anchor="middle" x="968" y="-62.6" font-family="Times,serif" font-size="14.00">InternationalComponent</text>
</g>
<!-- InternationalComponent&#45;&gt;AppModule -->
<g id="edge8" class="edge">
<title>InternationalComponent&#45;&gt;AppModule</title>
<path fill="none" stroke="black" d="M968,-84.99C968,-99.98 968,-118.8 968,-118.8 968,-118.8 1165.32,-118.8 1165.32,-118.8"/>
<polygon fill="black" stroke="black" points="1165.32,-122.3 1175.32,-118.8 1165.32,-115.3 1165.32,-122.3"/>
</g>
<!-- LoginComponent -->
<g id="node9" class="node">
<title>LoginComponent</title>
<polygon fill="#ffffb3" stroke="black" points="873.28,-84.8 758.72,-84.8 758.72,-48.8 873.28,-48.8 873.28,-84.8"/>
<text text-anchor="middle" x="816" y="-62.6" font-family="Times,serif" font-size="14.00">LoginComponent</text>
</g>
<!-- LoginComponent&#45;&gt;AppModule -->
<g id="edge9" class="edge">
<title>LoginComponent&#45;&gt;AppModule</title>
<path fill="none" stroke="black" d="M816,-84.83C816,-101.2 816,-122.8 816,-122.8 816,-122.8 1165.22,-122.8 1165.22,-122.8"/>
<polygon fill="black" stroke="black" points="1165.22,-126.3 1175.22,-122.8 1165.22,-119.3 1165.22,-126.3"/>
</g>
<!-- NavigationComponent -->
<g id="node10" class="node">
<title>NavigationComponent</title>
<polygon fill="#ffffb3" stroke="black" points="740.54,-84.8 597.46,-84.8 597.46,-48.8 740.54,-48.8 740.54,-84.8"/>
<text text-anchor="middle" x="669" y="-62.6" font-family="Times,serif" font-size="14.00">NavigationComponent</text>
</g>
<!-- NavigationComponent&#45;&gt;AppModule -->
<g id="edge10" class="edge">
<title>NavigationComponent&#45;&gt;AppModule</title>
<path fill="none" stroke="black" d="M669,-85.1C669,-103.07 669,-127.8 669,-127.8 669,-127.8 1164.91,-127.8 1164.91,-127.8"/>
<polygon fill="black" stroke="black" points="1164.91,-131.3 1174.91,-127.8 1164.91,-124.3 1164.91,-131.3"/>
</g>
<!-- RegisterComponent -->
<g id="node11" class="node">
<title>RegisterComponent</title>
<polygon fill="#ffffb3" stroke="black" points="578.98,-84.8 451.02,-84.8 451.02,-48.8 578.98,-48.8 578.98,-84.8"/>
<text text-anchor="middle" x="515" y="-62.6" font-family="Times,serif" font-size="14.00">RegisterComponent</text>
</g>
<!-- RegisterComponent&#45;&gt;AppModule -->
<g id="edge11" class="edge">
<title>RegisterComponent&#45;&gt;AppModule</title>
<path fill="none" stroke="black" d="M515,-84.91C515,-104.14 515,-131.8 515,-131.8 515,-131.8 1165.19,-131.8 1165.19,-131.8"/>
<polygon fill="black" stroke="black" points="1165.19,-135.3 1175.19,-131.8 1165.19,-128.3 1165.19,-135.3"/>
</g>
<!-- ResultsListComponent -->
<g id="node12" class="node">
<title>ResultsListComponent</title>
<polygon fill="#ffffb3" stroke="black" points="433.33,-84.8 288.67,-84.8 288.67,-48.8 433.33,-48.8 433.33,-84.8"/>
<text text-anchor="middle" x="361" y="-62.6" font-family="Times,serif" font-size="14.00">ResultsListComponent</text>
</g>
<!-- ResultsListComponent&#45;&gt;AppModule -->
<g id="edge12" class="edge">
<title>ResultsListComponent&#45;&gt;AppModule</title>
<path fill="none" stroke="black" d="M361,-84.83C361,-105.57 361,-136.8 361,-136.8 361,-136.8 1165.13,-136.8 1165.13,-136.8"/>
<polygon fill="black" stroke="black" points="1165.13,-140.3 1175.13,-136.8 1165.13,-133.3 1165.13,-140.3"/>
</g>
<!-- RoomsComponent -->
<g id="node13" class="node">
<title>RoomsComponent</title>
<polygon fill="#ffffb3" stroke="black" points="270.5,-84.8 149.5,-84.8 149.5,-48.8 270.5,-48.8 270.5,-84.8"/>
<text text-anchor="middle" x="210" y="-62.6" font-family="Times,serif" font-size="14.00">RoomsComponent</text>
</g>
<!-- RoomsComponent&#45;&gt;AppModule -->
<g id="edge13" class="edge">
<title>RoomsComponent&#45;&gt;AppModule</title>
<path fill="none" stroke="black" d="M210,-85.09C210,-107.01 210,-140.8 210,-140.8 210,-140.8 1165.33,-140.8 1165.33,-140.8"/>
<polygon fill="black" stroke="black" points="1165.33,-144.3 1175.33,-140.8 1165.33,-137.3 1165.33,-144.3"/>
</g>
<!-- UserComponent -->
<g id="node14" class="node">
<title>UserComponent</title>
<polygon fill="#ffffb3" stroke="black" points="131.76,-84.8 24.24,-84.8 24.24,-48.8 131.76,-48.8 131.76,-84.8"/>
<text text-anchor="middle" x="78" y="-62.6" font-family="Times,serif" font-size="14.00">UserComponent</text>
</g>
<!-- UserComponent&#45;&gt;AppModule -->
<g id="edge14" class="edge">
<title>UserComponent&#45;&gt;AppModule</title>
<path fill="none" stroke="black" d="M78,-85.12C78,-108.46 78,-145.8 78,-145.8 78,-145.8 1165.11,-145.8 1165.11,-145.8"/>
<polygon fill="black" stroke="black" points="1165.11,-149.3 1175.11,-145.8 1165.11,-142.3 1165.11,-149.3"/>
</g>
<!-- AppComponent  -->
<g id="node17" class="node">
<title>AppComponent </title>
<polygon fill="#80b1d3" stroke="black" points="1271.44,-214.8 1162.56,-214.8 1162.56,-178.8 1271.44,-178.8 1271.44,-214.8"/>
<text text-anchor="middle" x="1217" y="-192.6" font-family="Times,serif" font-size="14.00">AppComponent </text>
</g>
<!-- AppModule&#45;&gt;AppComponent  -->
<g id="edge16" class="edge">
<title>AppModule&#45;&gt;AppComponent </title>
<path fill="none" stroke="black" stroke-dasharray="1,5" d="M1217,-149.91C1217,-149.91 1217,-168.79 1217,-168.79"/>
<polygon fill="black" stroke="black" points="1213.5,-168.79 1217,-178.79 1220.5,-168.79 1213.5,-168.79"/>
</g>
<!-- I18nModule -->
<g id="node16" class="node">
<title>I18nModule</title>
<polygon fill="#8dd3c7" stroke="black" points="2409.71,-84.8 2406.71,-88.8 2385.71,-88.8 2382.71,-84.8 2324.29,-84.8 2324.29,-48.8 2409.71,-48.8 2409.71,-84.8"/>
<text text-anchor="middle" x="2367" y="-62.6" font-family="Times,serif" font-size="14.00">I18nModule</text>
</g>
<!-- I18nModule&#45;&gt;AppModule -->
<g id="edge15" class="edge">
<title>I18nModule&#45;&gt;AppModule</title>
<path fill="none" stroke="black" d="M2367,-85.12C2367,-108.46 2367,-145.8 2367,-145.8 2367,-145.8 1268.95,-145.8 1268.95,-145.8"/>
<polygon fill="black" stroke="black" points="1268.95,-142.3 1258.95,-145.8 1268.95,-149.3 1268.95,-142.3"/>
</g>
<!-- NominatimService -->
<g id="node18" class="node">
<title>NominatimService</title>
<ellipse fill="#fdb462" stroke="black" cx="2216" cy="-66.8" rx="83.96" ry="18"/>
<text text-anchor="middle" x="2216" y="-62.6" font-family="Times,serif" font-size="14.00">NominatimService</text>
</g>
<!-- NominatimService&#45;&gt;AppModule -->
<g id="edge17" class="edge">
<title>NominatimService&#45;&gt;AppModule</title>
<path fill="none" stroke="black" d="M2216,-85.09C2216,-107.01 2216,-140.8 2216,-140.8 2216,-140.8 1268.97,-140.8 1268.97,-140.8"/>
<polygon fill="black" stroke="black" points="1268.97,-137.3 1258.97,-140.8 1268.97,-144.3 1268.97,-137.3"/>
</g>
</g>
</svg>
